<svg xmlns="http://www.w3.org/2000/svg" viewBox="0 0 158.46 94.05"><defs><style>.cls-1{font-size:28.26px;}.cls-1,.cls-2,.cls-3{fill:#333;}.cls-1,.cls-2{font-family:Poppins-SemiBold, Poppins;font-weight:600;}.cls-2{font-size:7.19px;letter-spacing:0.2em;}</style></defs><title>13763782_5349528</title><g id="OBJECTS"><text class="cls-1" transform="translate(2.97 69.87) scale(0.99 1)">METAFLEET</text><text class="cls-2" transform="translate(45.79 78.8) scale(0.99 1)">YOUR SLOGAN</text><path class="cls-3" d="M113.62,28.17l-10.18-1.08V24.85a4.56,4.56,0,0,0-4.54-4.57H97.54s-2.38-9.82-20.27-9.82H25.74l45.94,6.13H32.18l40.19,6.12H38.62l34.45,6.12h-28L73.77,35H51.51l25.76,6.86H92.66a5.28,5.28,0,0,0,9.75,0h12.41a1.43,1.43,0,0,0,1.42-1.43v-9.2A3,3,0,0,0,113.62,28.17Zm-12.54-.5H94.52V23.74l-8.71-1H98.08a3,3,0,0,1,3,3Z"/></g></svg>